<svg xmlns="http://www.w3.org/2000/svg" width="28" height="26" viewBox="0 0 28 26">
    <defs>
        <style>
            .cls-2{fill:#549bf9}
        </style>
    </defs>
    <g id="그룹_866" transform="translate(-1719 -313.633)">
        <g id="사각형_240" fill="#fff" stroke="#549bf9" stroke-width="2px" transform="translate(1719 313.633)">
            <rect width="28" height="26" stroke="none" rx="4"/>
            <rect width="26" height="24" x="1" y="1" fill="none" rx="3"/>
        </g>
        <g id="그룹_864" transform="translate(1722.746 320.174)">
            <path id="Icon_awesome-road" d="M14 17.476L10.586 5.215c-.121-.436-.386-.715-.677-.715H7.525l.06.887c.012.181-.078.339-.194.339h-.712c-.116 0-.207-.158-.194-.339l.06-.887H4.16c-.291 0-.556.279-.677.715L.068 17.476c-.226.812.135 1.737.678 1.737h4.808l.252-3.743c.021-.312.189-.549.389-.549h1.68c.2 0 .368.237.389.549l.252 3.743h4.808c.543 0 .903-.925.676-1.737zM6.36 7.226c.011-.156.094-.274.194-.274h.96c.1 0 .184.118.194.274L7.821 8.9c.018.272-.117.508-.291.508h-.99c-.174 0-.31-.236-.291-.508zM7.71 13.7H6.359c-.232 0-.413-.315-.389-.677l.124-1.839c.021-.312.189-.549.389-.549h1.1c.2 0 .368.237.389.549l.128 1.834c.023.362-.158.682-.39.682z" class="cls-2" transform="translate(0 -4.5)"/>
            <path id="Icon_awesome-long-arrow-alt-up" d="M3.637 6.283v7.572a.386.386 0 0 0 .407.361h1.9a.386.386 0 0 0 .407-.361V6.283h1.564a.715.715 0 0 0 .576-1.233l-2.92-2.589a.89.89 0 0 0-1.152 0L1.5 5.05a.715.715 0 0 0 .576 1.232z" class="cls-2" transform="translate(12.68 .445)"/>
        </g>
    </g>
</svg>
