<svg xmlns="http://www.w3.org/2000/svg" width="28" height="26" viewBox="0 0 28 26">
    <defs>
        <style>
            .cls-2{fill:#ff7492}
        </style>
    </defs>
    <g id="그룹_869" transform="translate(-1678 -313.634)">
        <g id="사각형_224" fill="#fff" stroke="#ff7492" stroke-width="2px" transform="translate(1678 313.634)">
            <rect width="28" height="26" stroke="none" rx="4"/>
            <rect width="26" height="24" x="1" y="1" fill="none" rx="3"/>
        </g>
        <g id="그룹_855" transform="translate(1682.747 319.854)">
            <path id="패스_162" d="M39.9 88.3v1.318c0 .628 1.82 1.537 4.644 1.537s4.644-.91 4.644-1.537V88.3a9.327 9.327 0 0 1-4.644 1.067A9.327 9.327 0 0 1 39.9 88.3z" class="cls-2" transform="translate(-29.481 -76.691)"/>
            <path id="패스_164" d="M44.544 69.5c-2.824 0-4.644.91-4.644 1.537s1.82 1.537 4.644 1.537 4.644-.91 4.644-1.537c-.032-.627-1.82-1.537-4.644-1.537z" class="cls-2" transform="translate(-29.481 -60.992)"/>
            <g id="그룹_125">
                <path id="패스_165" d="M7.1 88.3v1.318c0 .628 1.82 1.537 4.644 1.537s4.644-.91 4.644-1.537V88.3a9.327 9.327 0 0 1-4.644 1.067A9.327 9.327 0 0 1 7.1 88.3z" class="cls-2" transform="translate(-7.1 -76.691)"/>
                <path id="패스_166" d="M7.1 79.3v1.318c0 .628 1.82 1.537 4.644 1.537s4.644-.91 4.644-1.537V79.3a9.327 9.327 0 0 1-4.644 1.067A9.674 9.674 0 0 1 7.1 79.3z" class="cls-2" transform="translate(-7.1 -70.515)"/>
                <path id="패스_167" d="M7.1 70.2v1.318c0 .628 1.82 1.537 4.644 1.537s4.644-.91 4.644-1.537V70.2a9.327 9.327 0 0 1-4.644 1.067A9.675 9.675 0 0 1 7.1 70.2z" class="cls-2" transform="translate(-7.1 -64.27)"/>
                <path id="패스_168" d="M7.1 61.1v1.318c0 .628 1.82 1.537 4.644 1.537s4.644-.91 4.644-1.537V61.1a9.327 9.327 0 0 1-4.644 1.067A9.674 9.674 0 0 1 7.1 61.1z" class="cls-2" transform="translate(-7.1 -58.025)"/>
                <path id="패스_169" d="M11.744 51.3c-2.824 0-4.644.91-4.644 1.537s1.82 1.537 4.644 1.537 4.644-.91 4.644-1.537c-.032-.627-1.82-1.537-4.644-1.537z" class="cls-2" transform="translate(-7.1 -51.3)"/>
            </g>
            <path id="Icon_awesome-plus" fill="#ff7492" stroke="#ff7492" d="M6.171 4.861H4.035V2.725a.475.475 0 0 0-.475-.475h-.475a.475.475 0 0 0-.475.475v2.136H.475A.475.475 0 0 0 0 5.335v.475a.475.475 0 0 0 .475.475h2.136v2.136a.475.475 0 0 0 .475.475h.474a.475.475 0 0 0 .475-.475V6.285h2.136a.475.475 0 0 0 .475-.475v-.475a.475.475 0 0 0-.475-.474z" transform="translate(11.722 -1.852)"/>
        </g>
    </g>
</svg>
