<svg xmlns="http://www.w3.org/2000/svg" width="26.326" height="20.799" viewBox="0 0 26.326 20.799">
    <defs>
        <style>
            .cls-1{fill:#eeb42e}
        </style>
    </defs>
    <g id="그룹_838" transform="translate(-15968.1 -10521.999)">
        <g id="그룹_837" transform="translate(15968.1 10521.999)">
            <path id="패스_165" d="M7.1 88.3v1.895c0 .9 2.617 2.211 6.677 2.211s6.677-1.308 6.677-2.211V88.3a13.41 13.41 0 0 1-6.677 1.534A13.41 13.41 0 0 1 7.1 88.3z" class="cls-1" transform="translate(-7.1 -71.606)"/>
            <path id="패스_166" d="M7.1 79.3v1.895c0 .9 2.617 2.211 6.677 2.211s6.677-1.308 6.677-2.211V79.3a13.41 13.41 0 0 1-6.677 1.534A13.91 13.91 0 0 1 7.1 79.3z" class="cls-1" transform="translate(-7.1 -66.668)"/>
            <path id="패스_167" d="M7.1 70.2v1.895c0 .9 2.617 2.211 6.677 2.211s6.677-1.306 6.677-2.211V70.2a13.411 13.411 0 0 1-6.677 1.534A13.91 13.91 0 0 1 7.1 70.2z" class="cls-1" transform="translate(-7.1 -61.673)"/>
            <path id="패스_168" d="M7.1 61.1v1.895c0 .9 2.617 2.211 6.677 2.211s6.677-1.308 6.677-2.211V61.1a13.41 13.41 0 0 1-6.677 1.534A13.91 13.91 0 0 1 7.1 61.1z" class="cls-1" transform="translate(-7.1 -56.678)"/>
            <path id="패스_169" d="M13.777 51.3c-4.06 0-6.677 1.308-6.677 2.211s2.617 2.211 6.677 2.211 6.677-1.308 6.677-2.211c-.045-.903-2.617-2.211-6.677-2.211z" class="cls-1" transform="translate(-7.1 -51.3)"/>
        </g>
        <path id="Icon_awesome-long-arrow-alt-up" d="M4.469 7.692v10.217a.521.521 0 0 0 .55.487h2.563a.521.521 0 0 0 .55-.487V7.692h2.109a.965.965 0 0 0 .777-1.663L7.077 2.535a1.2 1.2 0 0 0-1.554 0L1.582 6.029a.965.965 0 0 0 .777 1.663z" class="cls-1" transform="translate(15983.083 10523.386)"/>
    </g>
</svg>
