<svg xmlns="http://www.w3.org/2000/svg" width="28.18" height="20.684" viewBox="0 0 28.18 20.684">
    <defs>
        <style>
            .cls-1{fill:#ff7492}
        </style>
    </defs>
    <g id="그룹_851" transform="translate(-1643 -212.718)">
        <path id="패스_162" d="M39.9 88.3v1.884c0 .9 2.6 2.2 6.64 2.2s6.64-1.3 6.64-2.2V88.3a13.336 13.336 0 0 1-6.64 1.525A13.337 13.337 0 0 1 39.9 88.3z" class="cls-1" transform="translate(1617.999 141.019)"/>
        <path id="패스_164" d="M46.54 69.5c-4.038 0-6.64 1.3-6.64 2.2s2.6 2.2 6.64 2.2 6.64-1.3 6.64-2.2c-.044-.9-2.602-2.2-6.64-2.2z" class="cls-1" transform="translate(1617.999 155.384)"/>
        <g id="그룹_125" transform="translate(1643 212.718)">
            <path id="패스_165" d="M7.1 88.3v1.884c0 .9 2.6 2.2 6.64 2.2s6.64-1.3 6.64-2.2V88.3a13.336 13.336 0 0 1-6.64 1.525A13.337 13.337 0 0 1 7.1 88.3z" class="cls-1" transform="translate(-7.1 -71.699)"/>
            <path id="패스_166" d="M7.1 79.3v1.884c0 .9 2.6 2.2 6.64 2.2s6.64-1.3 6.64-2.2V79.3a13.336 13.336 0 0 1-6.64 1.525A13.834 13.834 0 0 1 7.1 79.3z" class="cls-1" transform="translate(-7.1 -66.737)"/>
            <path id="패스_167" d="M7.1 70.2v1.884c0 .9 2.6 2.2 6.64 2.2s6.64-1.3 6.64-2.2V70.2a13.337 13.337 0 0 1-6.64 1.525A13.834 13.834 0 0 1 7.1 70.2z" class="cls-1" transform="translate(-7.1 -61.72)"/>
            <path id="패스_168" d="M7.1 61.1v1.884c0 .9 2.6 2.2 6.64 2.2s6.64-1.3 6.64-2.2V61.1a13.337 13.337 0 0 1-6.64 1.525A13.834 13.834 0 0 1 7.1 61.1z" class="cls-1" transform="translate(-7.1 -56.703)"/>
            <path id="패스_169" d="M13.74 51.3c-4.04 0-6.64 1.3-6.64 2.2s2.6 2.2 6.64 2.2 6.64-1.3 6.64-2.2c-.044-.9-2.602-2.2-6.64-2.2z" class="cls-1" transform="translate(-7.1 -51.3)"/>
        </g>
        <path id="Icon_awesome-plus" fill="#ff7492" stroke="#ff7492" d="M8.824 5.983H5.77V2.929a.679.679 0 0 0-.679-.679h-.679a.679.679 0 0 0-.679.679v3.054H.679A.679.679 0 0 0 0 6.662v.679a.679.679 0 0 0 .679.679h3.054v3.055a.679.679 0 0 0 .679.679h.679a.679.679 0 0 0 .679-.679V8.02h3.054a.679.679 0 0 0 .676-.679v-.679a.679.679 0 0 0-.676-.679z" transform="translate(1659.762 211.037)"/>
    </g>
</svg>
