<svg xmlns="http://www.w3.org/2000/svg" width="26.502" height="21.001" viewBox="0 0 26.502 21.001">
    <defs>
        <style>
            .cls-1{fill:#ff8b27}
        </style>
    </defs>
    <g id="그룹_848" transform="translate(-1764.1 -211.999)">
        <g id="그룹_837" transform="translate(1764.1 211.999)">
            <path id="패스_165" d="M7.1 88.3v1.913c0 .911 2.642 2.232 6.742 2.232s6.742-1.321 6.742-2.232V88.3a13.541 13.541 0 0 1-6.742 1.549A13.541 13.541 0 0 1 7.1 88.3z" class="cls-1" transform="translate(-7.1 -71.444)"/>
            <path id="패스_166" d="M7.1 79.3v1.913c0 .911 2.642 2.232 6.742 2.232s6.742-1.321 6.742-2.232V79.3a13.541 13.541 0 0 1-6.742 1.549A14.046 14.046 0 0 1 7.1 79.3z" class="cls-1" transform="translate(-7.1 -66.545)"/>
            <path id="패스_167" d="M7.1 70.2v1.913c0 .911 2.642 2.232 6.742 2.232s6.742-1.321 6.742-2.232V70.2a13.541 13.541 0 0 1-6.742 1.549A14.046 14.046 0 0 1 7.1 70.2z" class="cls-1" transform="translate(-7.1 -61.59)"/>
            <path id="패스_168" d="M7.1 61.1v1.913c0 .911 2.642 2.232 6.742 2.232s6.742-1.321 6.742-2.232V61.1a13.541 13.541 0 0 1-6.742 1.549A14.046 14.046 0 0 1 7.1 61.1z" class="cls-1" transform="translate(-7.1 -56.635)"/>
            <path id="패스_169" d="M13.842 51.3c-4.1 0-6.742 1.321-6.742 2.232s2.642 2.232 6.742 2.232 6.742-1.321 6.742-2.232c-.045-.911-2.642-2.232-6.742-2.232z" class="cls-1" transform="translate(-7.1 -51.3)"/>
        </g>
        <path id="Icon_awesome-long-arrow-alt-up" d="M4.5 13.059V2.742a.526.526 0 0 1 .555-.492h2.589a.526.526 0 0 1 .555.492v10.317h2.13a.974.974 0 0 1 .785 1.679l-3.98 3.528a1.213 1.213 0 0 1-1.569 0l-3.98-3.528a.974.974 0 0 1 .785-1.679z" class="cls-1" transform="translate(1779.161 213.421)"/>
    </g>
</svg>
