<svg xmlns="http://www.w3.org/2000/svg" width="23.5" height="19.094" viewBox="0 0 23.5 19.094">
    <path fill="#14a4ae" d="M2.2 3.375a2.2 2.2 0 1 0 2.2 2.2 2.2 2.2 0 0 0-2.2-2.2zm0 7.344a2.2 2.2 0 1 0 2.2 2.2 2.2 2.2 0 0 0-2.2-2.2zm0 7.344a2.2 2.2 0 1 0 2.2 2.2 2.2 2.2 0 0 0-2.2-2.2zm20.562.734H8.078a.734.734 0 0 0-.734.734V21a.734.734 0 0 0 .734.734h14.688A.734.734 0 0 0 23.5 21v-1.469a.734.734 0 0 0-.734-.731zm0-14.687H8.078a.734.734 0 0 0-.734.734v1.468a.734.734 0 0 0 .734.734h14.688a.734.734 0 0 0 .734-.734V4.844a.734.734 0 0 0-.734-.735zm0 7.344H8.078a.734.734 0 0 0-.734.734v1.469a.734.734 0 0 0 .734.734h14.688a.734.734 0 0 0 .734-.734v-1.469a.734.734 0 0 0-.734-.735z" transform="translate(0 -3.375)"/>
</svg>
