<svg xmlns="http://www.w3.org/2000/svg" width="26.611" height="19.66" viewBox="0 0 26.611 19.66">
    <defs>
        <style>
            .cls-1{fill:#718594}
        </style>
    </defs>
    <g id="그룹_129" data-name="그룹 129" transform="translate(-820 -801)">
        <g id="그룹_126" data-name="그룹 126" transform="translate(820 801)">
            <g id="그룹_124" data-name="그룹 124" transform="translate(13.988 7.762)">
                <path id="패스_162" d="M39.9 88.3v1.791c0 .853 2.473 2.09 6.311 2.09s6.311-1.237 6.311-2.09V88.3a12.675 12.675 0 0 1-6.311 1.45A12.675 12.675 0 0 1 39.9 88.3z" class="cls-1" data-name="패스 162" transform="translate(-39.9 -80.283)"/>
                <path id="패스_163" d="M39.9 79.3v1.791c0 .853 2.473 2.09 6.311 2.09s6.311-1.237 6.311-2.09V79.3a12.675 12.675 0 0 1-6.311 1.45A13.149 13.149 0 0 1 39.9 79.3z" class="cls-1" data-name="패스 163" transform="translate(-39.9 -75.121)"/>
                <path id="패스_164" d="M46.211 69.5c-3.838 0-6.311 1.237-6.311 2.09s2.473 2.09 6.311 2.09 6.311-1.237 6.311-2.09c-.041-.853-2.474-2.09-6.311-2.09z" class="cls-1" data-name="패스 164" transform="translate(-39.9 -69.5)"/>
            </g>
            <g id="그룹_125" data-name="그룹 125">
                <path id="패스_165" d="M7.1 88.3v1.791c0 .853 2.473 2.09 6.311 2.09s6.311-1.237 6.311-2.09V88.3a12.675 12.675 0 0 1-6.311 1.45A12.675 12.675 0 0 1 7.1 88.3z" class="cls-1" data-name="패스 165" transform="translate(-7.1 -72.521)"/>
                <path id="패스_166" d="M7.1 79.3v1.791c0 .853 2.473 2.09 6.311 2.09s6.311-1.237 6.311-2.09V79.3a12.675 12.675 0 0 1-6.311 1.45A13.149 13.149 0 0 1 7.1 79.3z" class="cls-1" data-name="패스 166" transform="translate(-7.1 -67.359)"/>
                <path id="패스_167" d="M7.1 70.2v1.791c0 .853 2.473 2.09 6.311 2.09s6.311-1.237 6.311-2.09V70.2a12.675 12.675 0 0 1-6.311 1.45A13.148 13.148 0 0 1 7.1 70.2z" class="cls-1" data-name="패스 167" transform="translate(-7.1 -62.14)"/>
                <path id="패스_168" d="M7.1 61.1v1.791c0 .853 2.473 2.09 6.311 2.09s6.311-1.237 6.311-2.09V61.1a12.675 12.675 0 0 1-6.311 1.45A13.148 13.148 0 0 1 7.1 61.1z" class="cls-1" data-name="패스 168" transform="translate(-7.1 -56.921)"/>
                <path id="패스_169" d="M13.411 51.3c-3.838 0-6.311 1.237-6.311 2.09s2.473 2.09 6.311 2.09 6.311-1.237 6.311-2.09c-.041-.853-2.474-2.09-6.311-2.09z" class="cls-1" data-name="패스 169" transform="translate(-7.1 -51.3)"/>
            </g>
        </g>
    </g>
</svg>
