<svg xmlns="http://www.w3.org/2000/svg" width="18.603" height="18.927" viewBox="0 0 18.603 18.927">
    <path fill="#bbb" d="M16.858 18.926l-5.263-5.344a7.362 7.362 0 0 1-4.151 1.283 7.247 7.247 0 0 1-4.828-1.842 7.352 7.352 0 0 1-2.592-5.1A7.32 7.32 0 0 1 7.365 0a7.688 7.688 0 0 1 4.953 1.817 7.428 7.428 0 0 1 1.1 10.156l5.184 5.2-1.745 1.751zM7.5 2.256a5.162 5.162 0 0 0 0 10.325 5.08 5.08 0 0 0 3.668-1.516 4.925 4.925 0 0 0 1.4-3.583A5.156 5.156 0 0 0 7.5 2.256z" transform="translate(0 .001)"/>
</svg>
