<svg xmlns="http://www.w3.org/2000/svg" width="16.5" height="16.5" viewBox="0 0 16.5 16.5">
    <path fill="#f1b52a" d="M17.593 5.759a1.37 1.37 0 0 0-1.3-.926H14V3H8.5v1.833H6.208a1.378 1.378 0 0 0-1.3.926L3 11.25v7.333a.919.919 0 0 0 .917.917h.917a.919.919 0 0 0 .917-.917v-.917h11v.917a.919.919 0 0 0 .917.917h.917a.919.919 0 0 0 .917-.917V11.25zM6.208 14.917a1.375 1.375 0 1 1 1.375-1.375 1.373 1.373 0 0 1-1.375 1.375zm10.083 0a1.375 1.375 0 1 1 1.375-1.375 1.373 1.373 0 0 1-1.374 1.375zM4.833 10.333l1.375-4.125h10.084l1.375 4.125z" transform="translate(-3 -3)"/>
</svg>
