<svg xmlns="http://www.w3.org/2000/svg" width="31.918" height="21.001" viewBox="0 0 31.918 21.001">
    <defs>
        <style>
            .cls-1{fill:#549bf9}
        </style>
    </defs>
    <g id="그룹_853" transform="translate(-1703.946 -212.999)">
        <path id="Icon_awesome-road" d="M21.333 23.022l-5.2-17.5C15.945 4.9 15.542 4.5 15.1 4.5h-3.633l.091 1.267c.019.258-.119.483-.3.483h-1.082c-.177 0-.315-.225-.3-.483L9.971 4.5H6.339c-.444 0-.847.4-1.032 1.021L.1 23.022C-.24 24.181.309 25.5 1.137 25.5h7.326l.384-5.342c.032-.445.287-.783.592-.783H12c.3 0 .56.338.592.783l.384 5.342H20.3c.829 0 1.378-1.319 1.033-2.478zM9.692 8.392c.016-.223.144-.392.3-.392h1.458c.152 0 .28.169.3.392l.171 2.383c.028.388-.179.725-.444.725H9.965c-.265 0-.472-.337-.444-.725zm2.056 9.234H9.69c-.354 0-.629-.45-.592-.967l.189-2.625c.032-.445.287-.783.592-.783h1.68c.3 0 .56.338.592.783l.189 2.625c.037.517-.24.967-.592.967z" class="cls-1" transform="translate(1703.946 208.499)"/>
        <path id="Icon_awesome-long-arrow-alt-up" d="M4.654 8.006v10.808a.551.551 0 0 0 .581.515h2.713a.551.551 0 0 0 .581-.515V8.006h2.231a1.021 1.021 0 0 0 .822-1.759l-4.169-3.7a1.27 1.27 0 0 0-1.644 0L1.6 6.247a1.021 1.021 0 0 0 .822 1.759z" class="cls-1" transform="translate(1723.938 214.596)"/>
    </g>
</svg>
